<svg width="370" height="35" viewBox="0 0 370 35" fill="none" xmlns="http://www.w3.org/2000/svg">
<g filter="url(#filter0_d_1_2)">
<path d="M0.25 26V22.7969L3.33594 22.2109V7.05469L0.25 6.46875V3.24609H11.7148V6.46875L8.62891 7.05469V12.8359H18.1602V7.05469L15.0742 6.46875V3.24609H18.1602H23.4727H26.5586V6.46875L23.4727 7.05469V22.2109L26.5586 22.7969V26H15.0742V22.7969L18.1602 22.2109V16.918H8.62891V22.2109L11.7148 22.7969V26H0.25ZM39.5273 26.3516C37.418 26.3516 35.5625 25.8828 33.9609 24.9453C32.3724 23.9948 31.1289 22.6797 30.2305 21C29.3451 19.3073 28.9023 17.3542 28.9023 15.1406V14.125C28.9023 11.9115 29.3451 9.96484 30.2305 8.28516C31.1289 6.60547 32.3724 5.29688 33.9609 4.35938C35.5495 3.40885 37.3984 2.93359 39.5078 2.93359C41.6042 2.93359 43.4466 3.40885 45.0352 4.35938C46.6367 5.29688 47.8867 6.60547 48.7852 8.28516C49.6836 9.96484 50.1328 11.9115 50.1328 14.125V15.1406C50.1328 17.3542 49.6836 19.3073 48.7852 21C47.8997 22.6797 46.6628 23.9948 45.0742 24.9453C43.4857 25.8828 41.6367 26.3516 39.5273 26.3516ZM39.5273 22.2891C40.6341 22.2891 41.5781 21.9896 42.3594 21.3906C43.1536 20.7786 43.7591 19.9388 44.1758 18.8711C44.6055 17.7904 44.8203 16.5469 44.8203 15.1406V14.1055C44.8203 12.7122 44.6055 11.4818 44.1758 10.4141C43.7461 9.34635 43.1341 8.51302 42.3398 7.91406C41.5586 7.30208 40.6146 6.99609 39.5078 6.99609C38.375 6.99609 37.4115 7.29557 36.6172 7.89453C35.8359 8.49349 35.237 9.32682 34.8203 10.3945C34.4036 11.4622 34.1953 12.6992 34.1953 14.1055V15.1406C34.1953 16.5469 34.4036 17.7904 34.8203 18.8711C35.25 19.9388 35.8555 20.7786 36.6367 21.3906C37.431 21.9896 38.3945 22.2891 39.5273 22.2891ZM52.3008 26V22.7969L55.3086 22.1523V7.11328L52.3008 6.46875V3.24609H55.3086H64.332C66.194 3.24609 67.7956 3.53906 69.1367 4.125C70.4779 4.69792 71.5065 5.51823 72.2227 6.58594C72.9518 7.64062 73.3164 8.90365 73.3164 10.375C73.3164 11.7682 72.9388 12.9987 72.1836 14.0664C71.4414 15.1341 70.3932 15.9674 69.0391 16.5664C67.6979 17.1523 66.1224 17.4453 64.3125 17.4453H60.6211V22.1523L63.5508 22.7969V26H52.3008ZM68.1406 26L63.8242 15.4141L69.0586 15.3945L72.2422 22.3672L74.1562 22.7969V26H68.1406ZM60.582 13.4609H64.293C65.4909 13.4609 66.3958 13.194 67.0078 12.6602C67.6328 12.1133 67.9453 11.3776 67.9453 10.4531C67.9453 9.48958 67.6263 8.72786 66.9883 8.16797C66.3633 7.59505 65.4648 7.30859 64.293 7.30859H60.582V13.4609ZM80.9531 26V22.7969L84.0195 22.2109V7.30859H80.1328L79.918 10.2773H75.7773V3.24609H97.6914V10.2773H93.5508L93.2969 7.30859H89.332V22.2109L92.3984 22.7969V26H80.9531ZM98.5117 26V22.7969L100.094 22.5234L107.613 3.24609H113.258L120.758 22.5234L122.379 22.7969V26H113.824V22.9922L115.348 22.6602L114.488 20.2969H106.363L105.504 22.6602L107.047 22.9922V26H98.5117ZM107.672 16.625H113.18L110.758 9.96484L110.465 9.16406H110.348L110.094 9.92578L107.672 16.625ZM145.777 26.332C144.228 26.332 142.789 26.0781 141.461 25.5703C140.133 25.0495 138.967 24.3008 137.965 23.3242C136.962 22.3477 136.181 21.1628 135.621 19.7695C135.061 18.3633 134.781 16.7747 134.781 15.0039V14.2617C134.781 12.0482 135.237 10.0951 136.148 8.40234C137.06 6.69661 138.323 5.35547 139.938 4.37891C141.565 3.40234 143.447 2.91406 145.582 2.91406C147.262 2.91406 148.811 3.13542 150.23 3.57812C151.663 4.00781 152.913 4.69792 153.98 5.64844V11.4492H150.094L149.547 8.03125C149.065 7.69271 148.538 7.42578 147.965 7.23047C147.392 7.02214 146.715 6.91797 145.934 6.91797C144.814 6.91797 143.811 7.21094 142.926 7.79688C142.04 8.38281 141.344 9.22266 140.836 10.3164C140.328 11.3971 140.074 12.6992 140.074 14.2227V15.0039C140.074 16.4753 140.335 17.7643 140.855 18.8711C141.376 19.9648 142.086 20.8177 142.984 21.4297C143.896 22.0286 144.924 22.3281 146.07 22.3281C146.695 22.3281 147.301 22.263 147.887 22.1328C148.486 21.9896 149.033 21.8073 149.527 21.5859L150.074 18.4609H153.961V24.1445C153.206 24.7435 152.132 25.2578 150.738 25.6875C149.358 26.1172 147.704 26.332 145.777 26.332ZM156.832 26V22.7969L158.414 22.5234L165.934 3.24609H171.578L179.078 22.5234L180.699 22.7969V26H172.145V22.9922L173.668 22.6602L172.809 20.2969H164.684L163.824 22.6602L165.367 22.9922V26H156.832ZM165.992 16.625H171.5L169.078 9.96484L168.785 9.16406H168.668L168.414 9.92578L165.992 16.625ZM192.594 26.332C190.771 26.332 189.111 26.1497 187.613 25.7852C186.129 25.4206 184.671 24.763 183.238 23.8125V17.9727H187.32L187.906 21.0977C188.479 21.5013 189.169 21.8138 189.977 22.0352C190.784 22.2565 191.65 22.3672 192.574 22.3672C193.85 22.3672 194.794 22.1393 195.406 21.6836C196.031 21.2279 196.344 20.6224 196.344 19.8672C196.344 19.0859 196.031 18.4674 195.406 18.0117C194.781 17.556 193.707 17.1458 192.184 16.7812C190.191 16.2995 188.544 15.7396 187.242 15.1016C185.94 14.4635 184.97 13.6953 184.332 12.7969C183.694 11.8854 183.375 10.8047 183.375 9.55469C183.375 8.21354 183.753 7.04818 184.508 6.05859C185.263 5.06901 186.298 4.30078 187.613 3.75391C188.928 3.20703 190.452 2.92708 192.184 2.91406C194.111 2.88802 195.797 3.08333 197.242 3.5C198.688 3.90365 199.964 4.52214 201.07 5.35547V10.7852H197.105L196.402 7.69922C195.973 7.49089 195.432 7.3151 194.781 7.17188C194.13 7.02865 193.388 6.95703 192.555 6.95703C191.383 6.95703 190.445 7.17188 189.742 7.60156C189.039 8.03125 188.688 8.61719 188.688 9.35938C188.688 9.84115 188.85 10.2643 189.176 10.6289C189.501 10.9805 190.016 11.306 190.719 11.6055C191.435 11.8919 192.366 12.1914 193.512 12.5039C196.207 13.207 198.245 14.125 199.625 15.2578C201.005 16.3906 201.695 17.9076 201.695 19.8086C201.695 21.1888 201.318 22.3672 200.562 23.3438C199.807 24.3073 198.746 25.0495 197.379 25.5703C196.025 26.0781 194.43 26.332 192.594 26.332ZM204.449 26V22.7969L207.535 22.2109V7.05469L204.449 6.46875V3.24609H224.02V10.0625H219.879L219.645 7.30859H212.828V12.6211H221.852V16.0977H212.828V21.957H219.664L219.898 19.2031H224.02V26H204.449ZM227.535 26V22.7969L230.621 22.2109V7.05469L227.535 6.46875V3.24609H239V6.46875L235.934 7.05469V22.2109L239 22.7969V26H227.535ZM240.582 26V22.7969L243.59 22.1523V7.11328L240.582 6.46875V3.24609H243.59H252.613C254.475 3.24609 256.077 3.53906 257.418 4.125C258.759 4.69792 259.788 5.51823 260.504 6.58594C261.233 7.64062 261.598 8.90365 261.598 10.375C261.598 11.7682 261.22 12.9987 260.465 14.0664C259.723 15.1341 258.674 15.9674 257.32 16.5664C255.979 17.1523 254.404 17.4453 252.594 17.4453H248.902V22.1523L251.832 22.7969V26H240.582ZM256.422 26L252.105 15.4141L257.34 15.3945L260.523 22.3672L262.438 22.7969V26H256.422ZM248.863 13.4609H252.574C253.772 13.4609 254.677 13.194 255.289 12.6602C255.914 12.1133 256.227 11.3776 256.227 10.4531C256.227 9.48958 255.908 8.72786 255.27 8.16797C254.645 7.59505 253.746 7.30859 252.574 7.30859H248.863V13.4609ZM264.098 26V22.7969L265.68 22.5234L273.199 3.24609H278.844L286.344 22.5234L287.965 22.7969V26H279.41V22.9922L280.934 22.6602L280.074 20.2969H271.949L271.09 22.6602L272.633 22.9922V26H264.098ZM273.258 16.625H278.766L276.344 9.96484L276.051 9.16406H275.934L275.68 9.92578L273.258 16.625ZM299.801 26V22.7969L302.887 22.2109V7.05469L299.801 6.46875V3.24609H311.266V6.46875L308.199 7.05469V22.2109L311.266 22.7969V26H299.801ZM324.293 26.3516C322.184 26.3516 320.328 25.8828 318.727 24.9453C317.138 23.9948 315.895 22.6797 314.996 21C314.111 19.3073 313.668 17.3542 313.668 15.1406V14.125C313.668 11.9115 314.111 9.96484 314.996 8.28516C315.895 6.60547 317.138 5.29688 318.727 4.35938C320.315 3.40885 322.164 2.93359 324.273 2.93359C326.37 2.93359 328.212 3.40885 329.801 4.35938C331.402 5.29688 332.652 6.60547 333.551 8.28516C334.449 9.96484 334.898 11.9115 334.898 14.125V15.1406C334.898 17.3542 334.449 19.3073 333.551 21C332.665 22.6797 331.428 23.9948 329.84 24.9453C328.251 25.8828 326.402 26.3516 324.293 26.3516ZM324.293 22.2891C325.4 22.2891 326.344 21.9896 327.125 21.3906C327.919 20.7786 328.525 19.9388 328.941 18.8711C329.371 17.7904 329.586 16.5469 329.586 15.1406V14.1055C329.586 12.7122 329.371 11.4818 328.941 10.4141C328.512 9.34635 327.9 8.51302 327.105 7.91406C326.324 7.30208 325.38 6.99609 324.273 6.99609C323.141 6.99609 322.177 7.29557 321.383 7.89453C320.602 8.49349 320.003 9.32682 319.586 10.3945C319.169 11.4622 318.961 12.6992 318.961 14.1055V15.1406C318.961 16.5469 319.169 17.7904 319.586 18.8711C320.016 19.9388 320.621 20.7786 321.402 21.3906C322.197 21.9896 323.16 22.2891 324.293 22.2891ZM342.203 26V22.7969L345.27 22.2109V7.30859H341.383L341.168 10.2773H337.027V3.24609H358.941V10.2773H354.801L354.547 7.30859H350.582V22.2109L353.648 22.7969V26H342.203Z" fill="black"/>
</g>
<defs>
<filter id="filter0_d_1_2" x="0.25" y="0.875" width="369.691" height="33.4766" filterUnits="userSpaceOnUse" color-interpolation-filters="sRGB">
<feFlood flood-opacity="0" result="BackgroundImageFix"/>
<feColorMatrix in="SourceAlpha" type="matrix" values="0 0 0 0 0 0 0 0 0 0 0 0 0 0 0 0 0 0 127 0" result="hardAlpha"/>
<feOffset dx="6" dy="3"/>
<feGaussianBlur stdDeviation="2.5"/>
<feComposite in2="hardAlpha" operator="out"/>
<feColorMatrix type="matrix" values="0 0 0 0 0.0401042 0 0 0 0 0.458333 0 0 0 0 0.207396 0 0 0 1 0"/>
<feBlend mode="multiply" in2="BackgroundImageFix" result="effect1_dropShadow_1_2"/>
<feBlend mode="normal" in="SourceGraphic" in2="effect1_dropShadow_1_2" result="shape"/>
</filter>
</defs>
</svg>
